<svg fill="#929292" width="199px" height="199px" viewBox="-2.4 -2.4 28.80 28.80" xmlns="http://www.w3.org/2000/svg" stroke="#929292" stroke-width="0.00024000000000000003"><g id="SVGRepo_bgCarrier" stroke-width="0"></g><g id="SVGRepo_tracerCarrier" stroke-linecap="round" stroke-linejoin="round" stroke="#CCCCCC" stroke-width="0.096"></g><g id="SVGRepo_iconCarrier"><path d="M3 20h18a1 1 0 0 0 .864-1.504l-7-12c-.359-.615-1.369-.613-1.729 0L9.866 12.1l-1.02-1.632A.998.998 0 0 0 8 10h-.001a1 1 0 0 0-.847.47l-5 8A1 1 0 0 0 3 20zM14 8.985 19.259 18h-5.704l-2.486-3.987L14 8.985zm-5.999 3.9L11.197 18H4.805l3.196-5.115zM6 8c1.654 0 3-1.346 3-3S7.654 2 6 2 3 3.346 3 5s1.346 3 3 3zm0-4a1 1 0 1 1 0 2 1 1 0 0 1 0-2z"></path></g></svg>